# xmcd
#
# Track frame offsets: 
#        150
#        12897
#        22126
#        32259
#        41007
#        52916
#        62518
#        73541
#        82991
#        92744
#        102341
#        111508
#        120228
#        129539
#        140966
#        151378
#        160895
#        169844
#        181374
#        188704
#        200491
#        209253
#        222459
#        230786
#        241041
#
# Disc length: 3337 seconds
#
# Revision: 0
# Processed by: cddbd v1.5.2PL0 Copyright (c) Steve Scherf et al.
# Submitted via: ExactAudioCopyFreeDBPlugin 1.0
#
DISCID=5d0d0719
DTITLE=Various Artist - Country Guitar Revisited [CD2]
DYEAR=2018
DGENRE=Country
TTITLE0=Hank Snow - The Golden Rocket
TTITLE1=Jim Reeves - Overnight
TTITLE2=Skeeter Davis - Walk Softly Darling
TTITLE3=Hank Locklin - Border Of The Blues
TTITLE4=Gail Davis - Wabash Cannon Ball
TTITLE5=Hawkshaw Hawkins - Freedom
TTITLE6=Skeeter Davis - Slave
TTITLE7=Sons Of The Pioneers - A Fiddle, A Rifle, An Axe And A Bible
TTITLE8=Hank Snow - I Wish I Was The Moon
TTITLE9=Johnnie and Jack - Stop The World And Let Me Off
TTITLE10=Eddy Arnold - Sittin' By Sittin' Bull
TTITLE11=The Browns - Ain't No Way In This World
TTITLE12=Jack Clement - Edge Of Town
TTITLE13=Hank Snow - Marriage And Divorce
TTITLE14=Porter Wagoner - The Battle Of The Little Big Horn
TTITLE15=Hawkshaw Hawkins - Guilty Of Dreaming
TTITLE16=Jack Clement - Whole Lotta Lookin'
TTITLE17=Hank Snow - Rockin' Rollin' Ocean
TTITLE18=Jimmie Driftwood - Old Joe Clark
TTITLE19=Hank Locklin - It's A Little More Like Heaven
TTITLE20=Gail Davis - Are You Ready
TTITLE21=Jimmie Driftwood - Unfortunate Man
TTITLE22=Jim Reeves - Everywhere You Go
TTITLE23=Hank Snow - Big Wheels
TTITLE24=Hank Locklin - The Other Side Of The Door
EXTD=
EXTT0=
EXTT1=
EXTT2=
EXTT3=
EXTT4=
EXTT5=
EXTT6=
EXTT7=
EXTT8=
EXTT9=
EXTT10=
EXTT11=
EXTT12=
EXTT13=
EXTT14=
EXTT15=
EXTT16=
EXTT17=
EXTT18=
EXTT19=
EXTT20=
EXTT21=
EXTT22=
EXTT23=
EXTT24=
PLAYORDER=
